<mxfile host="app.diagrams.net" modified="2023-07-19T15:18:21.188Z" agent="Mozilla/5.0 (Windows NT 10.0; Win64; x64) AppleWebKit/537.36 (KHTML, like Gecko) Chrome/114.0.0.0 YaBrowser/23.7.1.991 (beta) Yowser/2.5 Safari/537.36" version="21.6.3" etag="QRLLBH1aNEYwdsmVr2mR" type="github">
  <diagram name="Страница 1" id="gqKEEJiKfbcqy7QF4_9X">
    <mxGraphModel>
      <root>
        <mxCell id="0" />
        <mxCell id="1" parent="0" />
      </root>
    </mxGraphModel>
  </diagram>
</mxfile>
